<svg xmlns="http://www.w3.org/2000/svg" xmlns:xlink="http://www.w3.org/1999/xlink" width="1920" zoomAndPan="magnify" viewBox="0 0 1440 809.999993" height="1080" preserveAspectRatio="xMidYMid meet" version="1.0"><defs><clipPath id="d67d782062"><path d="M 254 3 L 1092.789062 3 L 1092.789062 810 L 254 810 Z M 254 3 " clip-rule="nonzero"/></clipPath><clipPath id="10610615a1"><path d="M 244.539062 1 L 1084 1 L 1084 808 L 244.539062 808 Z M 244.539062 1 " clip-rule="nonzero"/></clipPath></defs><g clip-path="url(#d67d782062)"><path fill="#487996" d="M 1080.046875 387.359375 C 1079.40625 385.800781 1078.765625 384.199219 1078.054688 382.578125 C 1068.285156 359.464844 1054.117188 332.625 1037.207031 320.566406 C 1029.449219 315.007812 1016.269531 312.054688 1000.59375 310.796875 L 996.015625 310.476562 C 948.625 307.664062 882.328125 318.738281 872.855469 320.363281 L 871.710938 320.566406 L 872.96875 319.171875 C 880.132812 311.347656 915.96875 271.945312 936.222656 246.9375 C 937.441406 245.410156 938.585938 243.992188 939.652344 242.679688 C 943.042969 238.546875 946.160156 234.222656 949.011719 229.707031 C 957.640625 214.742188 970.203125 148.476562 970.457031 123.398438 C 970.457031 121.660156 970.457031 120.128906 970.339844 118.824219 C 970.320312 117.304688 969.992188 115.855469 969.355469 114.476562 C 963.980469 105.484375 930.636719 60.796875 908.257812 55.371094 C 904.9375 54.597656 901.574219 54.152344 898.164062 54.046875 C 896.679688 54.046875 895.144531 54.046875 893.589844 54.046875 C 871.78125 54.550781 841.824219 64.207031 800.472656 77.773438 C 790.589844 81.023438 780.425781 88.984375 770.449219 99.695312 C 769.167969 101.066406 767.910156 102.460938 766.652344 103.925781 C 764.914062 105.917969 763.171875 107.976562 761.457031 110.128906 C 734.867188 143.28125 710.769531 192.5 698.480469 219.546875 L 696.511719 223.960938 C 692.347656 233.320312 689.992188 239.0625 689.992188 239.0625 C 689.992188 239.0625 689.488281 233 688.664062 223.230469 C 688.527344 221.765625 688.390625 220.210938 688.230469 218.652344 C 685.4375 186.757812 679.761719 125.710938 674.933594 95.09375 C 674.679688 93.449219 674.40625 91.890625 674.15625 90.519531 C 673.601562 86.148438 672.558594 81.902344 671.019531 77.773438 C 668.410156 72.832031 658.523438 61.503906 645.070312 49.171875 C 643.695312 47.890625 642.277344 46.609375 640.835938 45.328125 C 619.53125 26.519531 591.039062 6.613281 567.949219 3.890625 C 554.015625 2.242188 537.789062 4.277344 522.183594 8.191406 L 517.46875 9.449219 C 490.007812 17 465.589844 29.835938 460.257812 37.777344 C 456.894531 42.695312 452.457031 54.59375 448.65625 69.011719 C 448.269531 70.472656 447.878906 71.984375 447.511719 73.585938 C 441.976562 96.261719 438.359375 123.71875 442.617188 140.238281 C 445.0625 149.550781 453.097656 171.703125 462.777344 197.261719 C 463.371094 198.839844 463.988281 200.417969 464.605469 202.019531 C 473.761719 225.839844 483.945312 252.082031 492.386719 273.476562 C 493.691406 276.703125 494.929688 279.839844 496.09375 282.8125 C 503.921875 302.515625 509.460938 316.3125 509.824219 317 C 509.503906 317 503.488281 314.710938 493.464844 311.460938 L 488.886719 310.066406 C 462.320312 301.917969 414.378906 289.472656 368.679688 288.945312 C 367.152344 288.945312 365.625 288.945312 364.101562 288.945312 C 356.117188 288.96875 348.160156 289.457031 340.234375 290.410156 C 336.707031 290.871094 333.242188 291.613281 329.835938 292.636719 C 326.433594 293.660156 323.132812 294.949219 319.933594 296.503906 C 316.738281 298.058594 313.6875 299.863281 310.78125 301.910156 C 307.875 303.957031 305.152344 306.226562 302.613281 308.714844 C 301.195312 310.066406 299.820312 311.460938 298.46875 312.925781 C 270.367188 342.992188 258.285156 396.078125 255.015625 430.949219 C 254.855469 432.503906 254.738281 434.011719 254.625 435.523438 C 253.796875 443.820312 253.796875 452.121094 254.625 460.417969 C 258.699219 488.171875 300.757812 543.980469 333.300781 555.171875 C 334.96875 555.726562 336.675781 556.101562 338.425781 556.292969 C 339.945312 556.5 341.46875 556.628906 343.003906 556.679688 C 369.800781 557.824219 425.726562 543.316406 467.671875 531.03125 L 472.410156 529.636719 C 500.03125 521.464844 520.46875 514.625 520.46875 514.625 C 520.46875 514.625 502.570312 544.371094 484.769531 579.652344 C 484.058594 581.117188 483.328125 582.582031 482.59375 584.070312 C 475.570312 598.234375 468.679688 613.128906 463.050781 627.269531 C 460.761719 633.058594 458.65625 638.710938 456.847656 644.15625 C 452.273438 658.113281 449.457031 670.5625 449.871094 679.78125 C 450.117188 684.308594 450.878906 688.75 452.160156 693.097656 C 453.179688 696.605469 454.382812 700.042969 455.773438 703.417969 C 455.800781 703.515625 455.839844 703.605469 455.886719 703.691406 C 456.527344 705.273438 457.238281 706.875 457.992188 708.476562 C 477.71875 751.125 527.996094 801.351562 548.5 807.894531 C 554.902344 809.675781 561.378906 810.003906 567.929688 808.878906 C 569.460938 808.695312 571.015625 808.445312 572.503906 808.148438 C 597.21875 803.570312 628.136719 787.875 654.199219 780.4375 C 665.160156 777.300781 674.476562 756.777344 682.140625 729.847656 L 683.378906 725.386719 C 693.902344 686.488281 701.113281 636.148438 704.910156 605.210938 C 705.09375 603.632812 705.277344 602.144531 705.460938 600.636719 C 707.222656 585.992188 708.089844 576.679688 708.089844 576.679688 C 708.089844 576.679688 710.792969 582.765625 715.277344 592.695312 C 716.421875 595.234375 717.679688 598.027344 719.074219 601.046875 C 719.214844 601.367188 719.351562 601.6875 719.511719 602.007812 C 720.199219 603.566406 720.929688 605.167969 721.683594 606.8125 C 738.984375 644.726562 768.574219 708.179688 784.707031 734.949219 C 785.78125 736.757812 786.8125 738.40625 787.75 739.847656 C 788.6875 741.289062 789.648438 742.636719 790.472656 743.734375 C 796.582031 751.789062 810.132812 756.273438 826.265625 758.496094 C 827.773438 758.699219 829.285156 758.90625 830.839844 759.066406 C 865.167969 762.863281 908.644531 757.578125 918.648438 754.925781 C 920.230469 754.433594 921.671875 753.671875 922.972656 752.636719 C 924.664062 751.402344 926.230469 750.023438 927.664062 748.496094 C 943.839844 731.675781 965.238281 685.730469 959.335938 646.054688 C 958.300781 640.078125 956.53125 634.328125 954.023438 628.804688 C 953.359375 627.222656 952.628906 625.621094 951.851562 623.996094 C 927.730469 573.660156 856.472656 501.972656 856.472656 501.972656 C 856.472656 501.972656 942.789062 522.703125 975.261719 525.972656 C 976.933594 526.15625 978.464844 526.292969 979.839844 526.363281 C 981.257812 526.441406 982.675781 526.441406 984.09375 526.363281 C 998.238281 525.425781 1029.863281 521.191406 1050.230469 511.148438 C 1052.605469 509.984375 1054.890625 508.675781 1057.09375 507.210938 C 1059.585938 505.765625 1061.777344 503.957031 1063.667969 501.78125 C 1065.558594 499.605469 1067.042969 497.183594 1068.125 494.511719 C 1075.585938 472.132812 1092.519531 423.304688 1092.519531 423.304688 C 1092.519531 423.304688 1088.125 407.3125 1080.046875 387.359375 Z M 723.058594 511.535156 C 716.78125 514.34375 710.265625 516.394531 703.515625 517.691406 C 669.1875 523.914062 623.421875 491.925781 604.175781 476.503906 C 602.550781 475.199219 601.132812 474.011719 599.917969 472.957031 C 598.113281 471.402344 596.761719 470.167969 595.984375 469.386719 C 595.597656 468.996094 595.285156 468.554688 595.046875 468.0625 C 594.265625 466.550781 593.703125 464.964844 593.351562 463.300781 C 588.980469 445.476562 590.675781 397.929688 592.847656 380.105469 C 598.320312 368.917969 604.652344 358.238281 611.84375 348.070312 C 613.992188 345.003906 616.417969 341.9375 618.707031 338.917969 C 626.464844 329.46875 635.457031 321.003906 644.976562 316.882812 C 669.625 306.222656 713.859375 310.019531 741.089844 322.101562 C 742.625 322.765625 744.089844 323.449219 745.507812 324.160156 C 747.710938 325.296875 749.84375 326.546875 751.914062 327.914062 C 758.78125 332.488281 765.300781 341.871094 770.976562 353.425781 C 771.753906 354.980469 772.511719 356.605469 773.265625 358.230469 C 786.398438 387.382812 794.707031 427.171875 793.425781 441.722656 C 792.554688 451.265625 782.832031 465.980469 768.574219 480.003906 C 767.15625 481.402344 765.667969 482.796875 764.15625 484.167969 C 753.222656 494.246094 741.117188 502.636719 727.839844 509.339844 C 726.375 510.09375 724.75 510.828125 723.148438 511.535156 Z M 723.058594 511.535156 " fill-opacity="1" fill-rule="nonzero"/></g><g clip-path="url(#10610615a1)"><path fill="#6894bc" d="M 1070.894531 385.070312 C 1070.253906 383.515625 1069.613281 381.914062 1068.902344 380.289062 C 1059.128906 357.179688 1044.964844 330.339844 1028.054688 318.28125 C 1020.296875 312.71875 1007.117188 309.769531 991.441406 308.507812 L 986.863281 308.1875 C 939.472656 305.375 873.175781 316.449219 863.703125 318.074219 L 862.558594 318.28125 L 863.816406 316.882812 C 870.980469 309.058594 906.816406 269.65625 927.066406 244.648438 C 928.289062 243.121094 929.433594 241.703125 930.5 240.390625 C 933.886719 236.261719 937.007812 231.9375 939.859375 227.417969 C 948.488281 212.453125 961.050781 146.1875 961.300781 121.109375 C 961.300781 119.371094 961.300781 117.839844 961.1875 116.535156 C 961.167969 115.015625 960.839844 113.566406 960.203125 112.1875 C 954.824219 103.195312 921.484375 58.507812 899.101562 53.085938 C 895.785156 52.308594 892.417969 51.867188 889.011719 51.757812 C 887.523438 51.757812 885.992188 51.757812 884.433594 51.757812 C 862.625 52.261719 832.671875 61.917969 791.320312 75.484375 C 781.433594 78.734375 771.273438 86.699219 761.296875 97.40625 C 760.015625 98.777344 758.757812 100.175781 757.496094 101.640625 C 755.757812 103.628906 754.019531 105.6875 752.304688 107.839844 C 725.710938 140.996094 701.617188 190.210938 689.328125 217.257812 L 687.359375 221.675781 C 683.195312 231.03125 680.835938 236.777344 680.835938 236.777344 C 680.835938 236.777344 680.332031 230.710938 679.511719 220.941406 C 679.371094 219.476562 679.234375 217.921875 679.074219 216.367188 C 676.28125 184.46875 670.609375 123.421875 665.78125 92.808594 C 665.527344 91.160156 665.253906 89.601562 665 88.230469 C 664.449219 83.859375 663.402344 79.613281 661.867188 75.484375 C 659.257812 70.542969 649.371094 59.21875 635.917969 46.882812 C 634.542969 45.601562 633.125 44.320312 631.683594 43.039062 C 610.378906 24.230469 581.886719 4.324219 558.796875 1.601562 C 544.859375 -0.046875 528.636719 1.992188 513.03125 5.902344 L 508.316406 7.160156 C 480.855469 14.710938 456.4375 27.550781 451.105469 35.488281 C 447.742188 40.410156 443.300781 52.308594 439.503906 66.722656 C 439.113281 68.1875 438.726562 69.695312 438.359375 71.296875 C 432.820312 93.972656 429.207031 121.429688 433.460938 137.953125 C 435.910156 147.265625 443.941406 169.414062 453.621094 194.972656 C 454.21875 196.550781 454.835938 198.128906 455.453125 199.730469 C 464.605469 223.550781 474.789062 249.796875 483.234375 271.191406 C 484.539062 274.417969 485.773438 277.550781 486.941406 280.527344 C 494.769531 300.226562 500.304688 314.023438 500.671875 314.710938 C 500.351562 314.710938 494.332031 312.421875 484.308594 309.171875 L 479.734375 307.777344 C 453.164062 299.632812 405.222656 287.183594 359.523438 286.65625 C 358 286.65625 356.472656 286.65625 354.949219 286.65625 C 346.964844 286.679688 339.007812 287.167969 331.078125 288.121094 C 327.554688 288.585938 324.089844 289.328125 320.683594 290.347656 C 317.277344 291.371094 313.976562 292.660156 310.78125 294.214844 C 307.582031 295.769531 304.53125 297.574219 301.625 299.621094 C 298.71875 301.671875 295.996094 303.9375 293.457031 306.425781 C 292.039062 307.777344 290.667969 309.171875 289.316406 310.636719 C 261.214844 340.703125 249.132812 393.789062 245.859375 428.660156 C 245.699219 430.214844 245.585938 431.726562 245.472656 433.234375 C 244.644531 441.535156 244.644531 449.832031 245.472656 458.128906 C 249.542969 485.886719 291.605469 541.691406 324.144531 552.882812 C 325.816406 553.4375 327.523438 553.8125 329.273438 554.003906 C 330.789062 554.210938 332.316406 554.339844 333.847656 554.390625 C 360.644531 555.535156 416.574219 541.03125 458.519531 528.742188 L 463.257812 527.347656 C 490.878906 519.179688 511.3125 512.335938 511.3125 512.335938 C 511.3125 512.335938 493.417969 542.082031 475.613281 577.367188 C 474.90625 578.828125 474.171875 580.292969 473.441406 581.78125 C 466.414062 595.945312 459.527344 610.839844 453.898438 624.980469 C 451.609375 630.769531 449.503906 636.421875 447.695312 641.867188 C 443.121094 655.824219 440.304688 668.273438 440.714844 677.496094 C 440.960938 682.023438 441.726562 686.460938 443.003906 690.8125 C 444.023438 694.316406 445.230469 697.757812 446.621094 701.128906 C 446.648438 701.226562 446.6875 701.316406 446.734375 701.40625 C 447.375 702.984375 448.085938 704.585938 448.839844 706.1875 C 468.566406 748.839844 518.84375 799.0625 539.347656 805.605469 C 545.75 807.390625 552.226562 807.71875 558.773438 806.589844 C 560.308594 806.40625 561.863281 806.15625 563.351562 805.859375 C 588.066406 801.28125 618.980469 785.585938 645.046875 778.148438 C 656.007812 775.015625 665.320312 754.488281 672.988281 727.558594 C 673.398438 726.03125 673.8125 724.546875 674.222656 723.097656 C 684.75 684.199219 691.957031 633.859375 695.757812 602.925781 C 695.941406 601.34375 696.125 599.859375 696.304688 598.347656 C 698.070312 583.703125 698.9375 574.390625 698.9375 574.390625 C 698.9375 574.390625 701.636719 580.476562 706.125 590.40625 C 707.269531 592.949219 708.527344 595.738281 709.921875 598.757812 C 710.058594 599.078125 710.195312 599.398438 710.355469 599.71875 C 711.042969 601.277344 711.777344 602.878906 712.53125 604.527344 C 729.832031 642.441406 759.421875 705.890625 775.554688 732.660156 C 776.628906 734.46875 777.660156 736.117188 778.597656 737.558594 C 779.535156 739 780.496094 740.347656 781.320312 741.449219 C 787.429688 749.5 800.976562 753.988281 817.109375 756.207031 C 818.621094 756.410156 820.132812 756.617188 821.6875 756.777344 C 856.011719 760.578125 899.492188 755.289062 909.492188 752.636719 C 911.078125 752.144531 912.519531 751.382812 913.816406 750.347656 C 915.511719 749.113281 917.074219 747.734375 918.507812 746.207031 C 934.6875 729.390625 956.085938 683.445312 950.179688 643.765625 C 949.148438 637.789062 947.378906 632.039062 944.871094 626.515625 C 944.207031 624.9375 943.476562 623.335938 942.699219 621.710938 C 918.578125 571.371094 847.316406 499.683594 847.316406 499.683594 C 847.316406 499.683594 933.636719 520.414062 966.109375 523.6875 C 967.777344 523.867188 969.3125 524.007812 970.683594 524.074219 C 972.101562 524.152344 973.523438 524.152344 974.941406 524.074219 C 989.082031 523.136719 1020.707031 518.902344 1041.074219 508.859375 C 1043.449219 507.699219 1045.738281 506.386719 1047.941406 504.921875 C 1050.433594 503.476562 1052.625 501.667969 1054.515625 499.492188 C 1056.402344 497.316406 1057.890625 494.894531 1058.96875 492.222656 C 1066.429688 469.847656 1083.363281 421.015625 1083.363281 421.015625 C 1083.363281 421.015625 1078.972656 405.023438 1070.894531 385.070312 Z M 713.902344 509.246094 C 707.628906 512.054688 701.113281 514.105469 694.363281 515.402344 C 660.035156 521.625 614.269531 489.636719 595.023438 474.214844 C 593.398438 472.910156 591.980469 471.722656 590.765625 470.667969 C 588.957031 469.113281 587.609375 467.878906 586.828125 467.101562 C 586.445312 466.707031 586.132812 466.265625 585.890625 465.773438 C 585.113281 464.261719 584.546875 462.675781 584.199219 461.011719 C 579.828125 443.1875 581.519531 395.640625 583.695312 377.816406 C 589.167969 366.628906 595.496094 355.953125 602.6875 345.78125 C 604.839844 342.71875 607.265625 339.652344 609.554688 336.628906 C 617.3125 327.179688 626.304688 318.714844 635.824219 314.597656 C 660.46875 303.933594 704.703125 307.730469 731.9375 319.8125 C 733.46875 320.476562 734.933594 321.164062 736.351562 321.871094 C 738.554688 323.007812 740.691406 324.257812 742.761719 325.625 C 749.625 330.199219 756.148438 339.582031 761.824219 351.136719 C 762.601562 352.691406 763.355469 354.316406 764.113281 355.941406 C 777.246094 385.09375 785.554688 424.882812 784.273438 439.4375 C 783.402344 448.976562 773.675781 463.691406 759.421875 477.71875 C 758 479.113281 756.515625 480.507812 755.003906 481.882812 C 744.066406 491.960938 731.960938 500.347656 718.6875 507.050781 C 717.222656 507.804688 715.597656 508.539062 713.996094 509.246094 Z M 713.902344 509.246094 " fill-opacity="1" fill-rule="nonzero"/></g><path fill="#5283a0" d="M 447.71875 641.84375 L 443.140625 690.789062 C 444.160156 694.292969 445.367188 697.734375 446.757812 701.109375 L 453.921875 624.890625 C 451.609375 630.746094 449.527344 636.332031 447.71875 641.84375 Z M 984.847656 376.855469 L 1070.894531 385.070312 C 1070.253906 383.515625 1069.613281 381.914062 1068.902344 380.289062 L 985.285156 372.300781 L 991.441406 308.394531 L 986.863281 308.074219 L 980.777344 371.867188 L 859.675781 360.425781 L 863.703125 318.050781 L 863.816406 316.859375 L 871.207031 239.316406 L 927.066406 244.625 C 928.289062 243.097656 929.433594 241.679688 930.5 240.367188 L 871.644531 234.761719 L 883.085938 113.652344 L 961.210938 121.089844 C 961.210938 119.347656 961.210938 117.816406 961.097656 116.511719 L 883.519531 109.121094 L 888.988281 51.917969 C 887.5 51.917969 885.96875 51.917969 884.410156 51.917969 L 878.988281 108.777344 L 761.273438 97.566406 C 759.992188 98.9375 758.734375 100.335938 757.476562 101.800781 L 878.554688 113.238281 L 867.113281 234.351562 L 745.988281 222.796875 L 757.429688 101.777344 C 755.691406 103.765625 753.949219 105.828125 752.234375 107.976562 L 741.34375 222.382812 L 689.371094 217.28125 L 687.40625 221.699219 L 740.90625 226.753906 L 732.050781 319.628906 C 733.585938 320.292969 735.050781 320.980469 736.46875 321.6875 L 745.460938 227.1875 L 866.585938 238.628906 L 855.144531 359.742188 L 762.027344 350.863281 C 762.808594 352.417969 763.5625 354.042969 764.316406 355.667969 L 854.707031 364.292969 L 843.265625 485.40625 L 759.742188 477.441406 C 758.320312 478.839844 756.835938 480.234375 755.324219 481.605469 L 842.695312 490.117188 L 831.253906 611.230469 L 710.65625 599.789062 C 711.339844 601.34375 712.074219 602.945312 712.828125 604.59375 L 830.65625 615.738281 L 819.101562 737.007812 L 775.621094 732.867188 C 776.699219 734.675781 777.726562 736.320312 778.664062 737.761719 L 818.597656 741.5625 L 817.179688 756.410156 C 818.691406 756.617188 820.199219 756.824219 821.757812 756.984375 L 823.175781 741.996094 L 913.886719 750.621094 C 915.578125 749.390625 917.144531 748.007812 918.578125 746.480469 L 823.609375 737.441406 L 835.164062 616.332031 L 945.007812 626.789062 C 944.34375 625.210938 943.613281 623.609375 942.835938 621.984375 L 835.667969 611.777344 L 847.109375 490.667969 L 968.234375 502.109375 L 966.152344 523.867188 C 967.824219 524.050781 969.355469 524.1875 970.730469 524.257812 L 972.789062 502.542969 L 1041.121094 509.066406 C 1043.496094 507.902344 1045.785156 506.59375 1047.984375 505.128906 L 973.179688 497.988281 Z M 968.832031 497.53125 L 847.707031 486.089844 L 859.261719 364.980469 L 980.386719 376.421875 Z M 714.085938 509.246094 L 706.351562 590.40625 C 707.496094 592.949219 708.753906 595.738281 710.152344 598.757812 L 718.894531 507.027344 C 717.222656 507.804688 715.597656 508.539062 713.996094 509.246094 Z M 595.113281 474.101562 C 593.488281 472.796875 592.070312 471.609375 590.859375 470.554688 L 579.734375 587.25 L 475.636719 577.320312 C 474.929688 578.785156 474.195312 580.25 473.464844 581.734375 L 579.300781 591.804688 L 567.746094 712.914062 L 446.78125 701.472656 C 447.421875 703.050781 448.128906 704.652344 448.886719 706.257812 L 567.308594 717.558594 L 558.933594 806.589844 C 560.46875 806.40625 562.023438 806.15625 563.511719 805.859375 L 571.910156 717.925781 L 673.148438 727.558594 C 673.558594 726.03125 673.972656 724.546875 674.382812 723.097656 L 572.34375 713.371094 L 583.785156 592.261719 L 695.917969 602.921875 C 696.101562 601.34375 696.285156 599.859375 696.464844 598.347656 L 584.335938 587.660156 Z M 458.496094 528.789062 L 463.234375 527.390625 L 470.097656 454.699219 L 585.914062 465.726562 C 585.136719 464.21875 584.570312 462.628906 584.222656 460.96875 L 470.511719 450.121094 L 482.066406 329.035156 L 603.191406 340.476562 L 602.710938 345.601562 C 604.863281 342.535156 607.289062 339.46875 609.578125 336.449219 L 608.113281 336.308594 L 619.554688 215.199219 L 679.210938 220.898438 C 679.074219 219.433594 678.9375 217.875 678.777344 216.320312 L 620.21875 210.738281 L 631.773438 89.625 L 665.710938 92.875 C 665.460938 91.226562 665.183594 89.671875 664.933594 88.300781 L 632.164062 85.050781 L 635.800781 46.839844 C 634.429688 45.558594 633.007812 44.277344 631.566406 42.992188 L 627.585938 84.617188 L 506.484375 73.175781 L 512.890625 5.949219 L 508.179688 7.207031 L 501.929688 72.738281 L 439.320312 66.585938 C 438.929688 68.050781 438.542969 69.558594 438.175781 71.160156 L 501.542969 77.203125 L 490.101562 198.3125 L 453.484375 194.835938 C 454.082031 196.414062 454.699219 197.992188 455.316406 199.59375 L 489.640625 202.867188 L 483.144531 271.050781 C 484.449219 274.277344 485.683594 277.414062 486.851562 280.386719 L 494.195312 203.300781 L 615.320312 214.742188 L 603.878906 335.851562 L 482.753906 324.410156 L 484.21875 309.035156 L 479.640625 307.640625 L 478.085938 323.976562 L 356.960938 312.421875 L 359.433594 286.519531 C 357.90625 286.519531 356.382812 286.519531 354.855469 286.519531 L 352.429688 311.988281 L 293.367188 306.359375 C 291.949219 307.707031 290.574219 309.105469 289.226562 310.570312 L 351.996094 316.539062 L 340.554688 437.652344 L 246.066406 428.660156 C 245.90625 430.214844 245.792969 431.726562 245.675781 433.234375 L 340.117188 442.226562 L 329.273438 553.957031 C 330.789062 554.164062 332.316406 554.296875 333.847656 554.347656 L 344.511719 442.617188 L 465.613281 454.058594 Z M 494.539062 198.816406 L 505.980469 77.707031 L 627.082031 89.144531 L 615.640625 210.257812 Z M 344.925781 438.15625 L 356.367188 317.042969 L 477.492188 328.484375 L 466.050781 449.597656 Z M 344.925781 438.15625 " fill-opacity="1" fill-rule="nonzero"/></svg>