<svg xmlns="http://www.w3.org/2000/svg" xmlns:xlink="http://www.w3.org/1999/xlink" xmlns:inkscape="http://www.inkscape.org/namespaces/inkscape" version="1.1" width="1080" height="1080" viewBox="0 0 1080 1080">
<defs>
<clipPath id="clip_0">
<path transform="matrix(1,0,0,-1,0,1080)" d="M0 1080H1080V0H0Z"/>
</clipPath>
</defs>
<g clip-path="url(#clip_0)">
<path transform="matrix(1,0,0,-1,836.5151,645.0117)" d="M0 0C-17.09-9.688-34.693-14.065-55.236-10.962-86.549-18.722-108.951 3.572-134.719 16.037-141.874 19.498-148.307 24.021-155.291 14.686-161.777 6.016-163.25-.345-153.877-8.107-132.782-25.58-115.133-45.975-102.27-70.524-82.676-107.923-96.247-129.868-135.258-149.955-152.48-158.823-172.846-160.684-191.915-160.144-214.682-159.499-238.102-132.117-243.111-105.711-246.716-86.71-250.474-67.73-254.637-48.847-256.389-40.902-259.625-33.704-269.968-33.848-280.213-33.989-284.842-39.227-287.154-48.97-291.344-66.626-296.158-84.175-301.625-101.479-318.928-156.254-357.883-161.905-400.372-147.528-418.344-141.447-436.478-133.229-448.262-116.106-469.813-84.795-465.424-59.875-435.318-36.525-415.884-21.453-395.151-9.348-371.855-1.774-364.131 .737-357.752 3.077-361.437 13.137-364.568 21.684-369.754 25.973-379.508 23.737-411.469 16.411-443.676 13.053-476.683 13.236-545.379 13.619-570.812 65.528-542.977 126.802-527.375 161.147-492.739 172.254-455.862 165.624-431.916 161.318-409.11 153.099-385.754 146.794-376.134 144.198-367.5 143.313-361.793 153.095-356.021 162.988-362.932 169.455-369.588 174.694-391.595 192.016-402.496 215.689-411.114 241.475-418.268 262.876-412.526 281.179-400.891 298.195-381.429 326.655-354.44 342.03-319.638 346.735-277.803 352.392-248.986 320.668-242.7 288.968-238.575 268.168-244.484 248.078-243.109 227.658-242.704 221.645-244.086 214.519-236.843 212.043-229.299 209.465-220.819 208.321-214.898 215.495-207.976 223.881-200.863 232.425-195.76 241.934-185.963 260.189-170.375 272.499-155.044 285.303-137.728 299.766-119.211 299.301-98.815 292.156-51.741 275.667-31.893 227.762-58.675 190.575-69.195 175.968-81.964 162.769-97.073 152.168-107.962 144.528-118.031 135.727-128.585 127.599-135.788 122.054-138.555 116.88-132.372 107.857-126.92 99.9-122.857 97.261-113.464 101.954-83.006 117.173-51.478 124.528-17.009 116.023 10.003 109.358 25.919 93.957 30.094 65.632 34.871 33.225 25.667 14.549 0 0M12.223 133.613C-4.631 141.504-23.262 145.533-42.415 145.224-46.866 145.152-53.251 142.771-55.299 148.637-56.973 153.435-52.741 157.621-49.598 161.272-46.827 164.49-43.218 167.08-40.864 170.547-30.268 186.157-14.798 198.54-16.683 221.255-20.467 266.857-54.721 308.804-99.237 320.587-114.628 324.661-129.084 324.487-143.684 318.72-170.96 307.945-193.985 291.281-213.01 265.162-213.606 271.03-214.004 273.334-214.052 275.645-215.242 333.425-261.098 377.33-317.861 374.592-326.864 374.158-335.952 372.636-344.711 370.457-401.163 356.413-469.78 288.354-428.279 212.014-423.799 203.773-421.397 194.404-417.062 183.009-427.325 184.941-434.858 186.345-442.387 187.777-474.36 193.863-505.515 197.854-534.732 176.444-570.097 150.529-580.682 114.031-581.941 73.333-582.373 59.4-576.318 46.659-568.776 34.451-546.312-1.907-511.964-12.146-472.191-11.965-467.021-11.941-459.826-9.126-457.038-14.515-453.911-20.56-461.294-23.557-464.817-27.103-496.163-58.651-497.345-108.621-464.375-138.44-430.669-168.925-389.521-182.536-343.825-178.909-328.593-177.7-315.433-171.058-304.051-159.306-288.986-143.751-279.652-125.43-271.792-105.593-254.093-167.049-224.822-188.91-165.864-183.044-132.529-179.728-102.382-169.048-79.78-142.297-68.166-128.552-61.885-114.445-67-95.734-70.721-82.119-75.811-69.361-82.013-56.843-91.618-37.457-91.528-37.425-70.749-37.319-53.192-37.229-35.75-35.627-18.252-34.35 23.224-31.321 54.182 9.512 58.335 42.329 62.256 73.302 50.412 115.734 12.223 133.613" fill="#d0d2d3"/>
<path transform="matrix(1,0,0,-1,681.541,542.5244)" d="M0 0C-.563-47.199-36.015-86.703-79.997-91.906-83.616-92.334-87.574-91.848-90.824-93.155-135.046-110.949-167.458-89.57-198.115-61.445-219.191-42.11-223.73-14.218-206.376 9.145-182.562 41.205-149.321 58.737-112.11 73.606-67.06 91.608-42.541 69.02-17.222 39.696-6.466 27.239 1.597 14.337 0 0" fill="#fdca13"/>
<path transform="matrix(1,0,0,-1,619.0615,518.1455)" d="M0 0C-.074 .006-.145 .021-.219 .028-.219-.055-.214-.134-.214-.218L-.215-.219H-.214C-.1-.249 .007-.278 .121-.308 .08-.206 .042-.102 0 0Z" fill="#fbf48c"/>
<path transform="matrix(1,0,0,-1,619.1821,518.4536)" d="M0 0C2.582-6.557 4.191-13.775 8.05-19.466 18.093-34.275 15.055-44.605-.123-53.313-12.594-60.468-24.348-68.875-36.42-76.728-39.05-77.825-43.305-80.395-40.878-82.207-36.08-85.787-30.067-84.556-25.245-80.372-25.242-80.371-25.239-80.371-25.236-80.37-17.668-80.671-12.771-74.065-5.071-73.343 9.245-72.001 27.659-47.813 28.69-31.19 29.844-12.599 24.065-6.286 0 0" fill="#fbf48c"/>
<path transform="matrix(1,0,0,-1,604.3389,503.6626)" d="M0 0V0C-32.083 8.149-55.582-10.266-79.164-26.657-90.265-34.372-99.121-45.252-101.32-62.693-67.45-43.975-43.361-14.413-7.624-3.848-.162-7.202 5.855-13.591 14.503-14.455 14.438-4.931 6.294-3.377 0 0" fill="#fbf48c"/>
<path transform="matrix(1,0,0,-1,176.0225,422.1123)" d="M0 0C-4.034-.235-7.831-1.136-11.391-2.698-14.95-4.259-18.128-6.454-20.936-9.272-23.739-12.098-25.635-15.542-26.622-19.615-27.73-24.193-27.685-28.113-26.485-31.368-25.284-34.622-23.424-37.359-20.918-39.582-18.405-41.806-15.395-43.616-11.89-44.999-8.38-46.389-4.749-47.536-.993-48.445 3.516-49.537 7.928-50.201 12.245-50.438 16.562-50.676 20.533-50.159 24.155-48.88 27.783-47.602 30.946-45.472 33.655-42.493 36.365-39.514 38.367-35.351 39.662-30.004 40.771-25.425 40.585-21.546 39.103-18.354 37.625-15.169 35.439-12.416 32.551-10.101 29.668-7.787 26.346-5.907 22.583-4.456 18.826-3.012 15.196-1.859 11.687-1.009 7.93-.1 4.034 .234 0 0M37.506 50.602C43.156 42.734 47.017 34.579 49.077 26.126 51.144 17.672 51.723 8.565 50.813-1.194 49.91-10.955 47.994-21.874 45.07-33.948 43.913-38.726 42.398-43.622 40.522-48.624 38.651-53.632 36.209-57.969 33.197-61.632 30.19-65.297 26.536-68.073 22.233-69.958 17.935-71.85 12.776-72.061 6.765-70.605-.243-68.909-6.409-65.887-11.719-61.538-17.03-57.195-21.295-52.098-24.523-46.258-27.745-40.42-29.834-33.986-30.788-26.964-31.736-19.949-31.393-13.042-29.747-6.244-28.895-2.722-27.418 .91-25.316 4.663-23.215 8.417-20.7 11.667-17.784 14.422-14.861 17.175-11.577 19.245-7.931 20.624-4.279 22.001-.327 22.181 3.929 21.151 14.447 18.604 22.948 14.011 29.427 7.383 35.913 .755 40.559-7.696 43.374-17.959 43.678-16.703 44.048-15.457 44.476-14.23 44.909-13.005 45.271-11.764 45.577-10.502 48.866 3.081 48.721 15.338 45.139 26.285 41.561 37.223 35.011 47.689 25.5 57.685 25.061 58.052 23.944 59.186 22.147 61.082 20.355 62.969 18.494 64.88 16.574 66.805 14.652 68.725 12.905 70.54 11.331 72.25 9.755 73.956 8.875 74.964 8.683 75.278 9.248 75.402 9.996 75.488 10.931 75.529 11.871 75.562 12.682 75.366 13.373 74.938 23.813 66.575 31.854 58.464 37.506 50.602" fill="#1d96d3"/>
<path transform="matrix(1,0,0,-1,97.3691,254.81543)" d="M0 0C-2.412 .621-4.776 .864-7.093 .742-9.406 .613-11.553 .06-13.531-.917-15.507-1.901-17.015-3.579-18.043-5.953-20.207-10.947-19.157-16.347-14.891-22.147-10.627-27.954-5.072-33.392 1.764-38.472 8.605-43.554 15.672-48.099 22.972-52.108 30.276-56.12 35.707-58.896 39.274-60.441L82.438-79.141C79.57-73.384 75.104-66.577 69.042-58.72 62.982-50.872 56.349-43.199 49.147-35.697 41.947-28.202 34.577-21.407 27.046-15.318 19.514-9.235 12.662-4.85 6.475-2.169 4.574-1.346 2.417-.624 0 0M156.865-66.263C163.442-81.398 166.389-97.716 165.718-115.219L237.972-146.521C237.713-151.03 237.356-155.43 236.915-159.72 236.465-164.014 235.73-168.323 234.705-172.645L232.564-171.717C231.687-168.517 229.512-165.88 226.036-163.805 222.551-161.732 219.505-160.128 216.892-158.996L159.458-134.115C158.632-136.021 157.569-138.169 156.276-140.574 154.977-142.978 153.405-145.123 151.563-147.006 149.713-148.893 147.726-150.362 145.591-151.41 143.453-152.463 141.076-152.419 138.461-151.287 137.034-150.669 135.874-149.604 134.977-148.083 134.083-146.57 133.993-144.975 134.715-143.309 136.157-139.981 137.693-138.39 139.328-138.528 140.96-138.673 142.72-139.011 144.607-139.544 146.493-140.083 148.356-140.182 150.196-139.847 152.033-139.518 153.933-137.09 155.891-132.57 150.423-130.201 142.844-126.99 133.161-122.935 123.477-118.884 112.897-114.302 101.413-109.18 89.931-104.067 77.989-98.549 65.579-92.63 53.174-86.714 41.596-80.678 30.843-74.524 20.096-68.372 10.524-62.259 2.143-56.179-6.241-50.104-12.303-44.214-16.049-38.514-19.517-32.827-22.008-26.201-23.529-18.617-25.047-11.042-24.417-4.04-21.635 2.382-19.988 6.183-17.908 9.029-15.399 10.908-12.891 12.787-10.105 13.837-7.041 14.065-3.979 14.288-.794 13.968 2.502 13.109 5.8 12.243 8.998 11.143 12.086 9.805 18.033 7.228 24.792 1.97 32.367-5.972 39.941-13.914 47.508-22.7 55.056-32.325 62.609-41.952 69.513-51.444 75.772-60.789 82.034-70.142 86.987-77.444 90.643-82.695L162.346-113.758C163.322-106.277 163.078-98.545 161.594-90.554 160.114-82.571 157.771-74.777 154.564-67.172 151.362-59.575 147.511-52.326 143.011-45.432 138.514-38.545 133.739-32.452 128.687-27.151L127.771-26.331 127.165-24.797 129.923-24.298C141.307-37.14 150.289-51.126 156.865-66.263" fill="#1d96d3"/>
<path transform="matrix(1,0,0,-1,185.5898,233.65332)" d="M0 0C-2.373 1.547-5.345 1.942-8.91 1.196-12.474 .441-15.034-1.12-16.581-3.492-17.99-5.652-18.298-8.602-17.509-12.346-16.721-16.09-15.244-18.668-13.089-20.074-10.711-21.624-7.686-22.292-4.01-22.072-.332-21.86 2.353-20.453 4.042-17.862 6.152-14.625 6.764-11.332 5.871-7.981 4.982-4.633 3.025-1.973 0 0" fill="#1d96d3"/>
<path transform="matrix(1,0,0,-1,297.5801,245.53961)" d="M0 0C-.433 1.047-.876 2.074-1.326 3.091-2.233 2.619-3.139 2.143-4.047 1.672-1.733-3.87 .01-9.601 1.176-15.533 2.456-22.062 2.991-28.562 2.768-35.028 2.548-41.503 1.218-47.788-1.221-53.883-4.898-57.643-8.866-59.128-13.129-58.346-17.39-57.572-21.462-55.912-25.347-53.378L-55.134-33.955C-58.583-31.706-60.893-29.818-62.052-28.291-63.21-26.771-63.885-25.329-64.08-23.969-64.272-22.618-64.425-21.437-64.544-20.436-64.659-19.439-65.335-18.233-66.564-16.812L-68.507-15.545C-71.196-24.866-73.673-34.325-75.938-43.923L-36.114-69.89C-29.639-74.113-23.215-76.535-16.851-77.145-10.484-77.764-4.909-74.398-.122-67.058 3.958-60.8 6.443-53.805 7.33-46.077 8.216-38.35 7.976-30.58 6.61-22.768 5.244-14.955 3.04-7.368 0 0" fill="#1d96d3"/>
<path transform="matrix(1,0,0,-1,383.3345,195.98828)" d="M0 0C.401-8.282-.312-16.339-2.141-24.158-3.971-31.985-6.925-39.348-11.006-46.25-15.083-53.157-20.788-59.24-28.107-64.507-32.083-67.367-36.83-69.92-42.362-72.159-47.893-74.398-53.471-75.807-59.089-76.375-64.712-76.946-70.102-76.405-75.261-74.745-80.425-73.089-84.724-69.866-88.17-65.076-91.913-59.875-94.311-54.339-95.364-48.46-96.422-42.585-96.332-36.754-95.094-30.967-93.86-25.185-91.577-19.755-88.247-14.673-84.922-9.595-80.747-5.244-75.727-1.632-73.638-.129-71.929 .804-70.597 1.166-68.087 2.972-64.814 4.048-60.777 4.393-56.74 4.738-53.667 3.445-51.561 .519-49-3.041-48.312-7.307-49.495-12.28-50.675-17.258-52.026-21.563-53.539-25.189L-56.952-25.74C-57.438-24.186-57.924-22.63-58.406-21.072-58.892-19.518-59.659-18.008-60.713-16.542-63.27-12.988-66.493-10.939-70.372-10.397-74.256-9.859-77.973-10.867-81.527-13.424-86.758-17.187-88.854-21.553-87.817-26.521-86.785-31.492-84.684-36.17-81.523-40.563-72.793-52.696-63.507-59.429-53.664-60.753-43.821-62.086-32.936-58.458-21.013-49.879-14.322-45.064-9.848-38.594-7.601-30.467-5.35-22.345-4.083-14.292-3.797-6.304-3.513 1.676-3.746 8.732-4.5 14.857-5.258 20.978-5.364 24.547-4.829 25.572L-3.298 24.769C-1.504 16.536-.406 8.279 0 0" fill="#1d96d3"/>
<path transform="matrix(1,0,0,-1,452.9136,137.12158)" d="M0 0C.128-.226 .203-.627 .235-1.199 .942-8.205 .954-15.674 .272-23.612-.414-31.553-1.943-39.305-4.32-46.871-6.697-54.437-10.055-61.448-14.394-67.904-18.732-74.36-24.154-79.431-30.654-83.113-38.278-87.433-44.776-87.859-50.147-84.384-55.519-80.917-60.111-75.813-63.921-69.087L-87.356-27.723C-80.934-20.24-74.387-12.977-67.715-5.934L-66.572-7.952C-66.134-9.779-66.086-11.162-66.443-12.1-66.798-13.043-67.205-14.162-67.655-15.451-68.106-16.748-68.17-18.339-67.84-20.22-67.512-22.11-66.329-24.848-64.298-28.432L-46.771-59.371C-44.484-63.406-41.63-66.752-38.202-69.398-34.775-72.052-30.568-72.556-25.575-70.907-20.607-66.614-16.538-61.644-13.367-55.994-10.197-50.354-7.686-44.335-5.821-37.948-3.961-31.564-2.827-25.076-2.417-18.473-2.01-11.877-2.145-5.366-2.824 1.065L-2.241 3.172-.426 1.536C-.396 .956-.253 .447 0 0M-92.182 28.626C-92.928 25.239-94.984 22.596-98.348 20.69-101.038 19.167-104.069 19.15-107.433 20.652-110.799 22.146-113.179 24.129-114.578 26.599-115.846 28.838-115.973 31.806-114.953 35.494-113.932 39.182-112.303 41.66-110.059 42.931-107.594 44.327-104.604 44.536-101.091 43.569-97.582 42.593-95.124 40.876-93.728 38.412-91.947 35.27-91.432 32.008-92.182 28.626" fill="#1d96d3"/>
<path transform="matrix(1,0,0,-1,588.0859,146.67188)" d="M0 0C-3.104-7.505-12.19-14.527-16.738-21.064-21.287-27.602-26.559-33.202-32.555-37.852-38.551-42.508-45.391-45.387-53.075-46.494-58.454-47.269-62.484-46.084-65.155-42.939-67.832-39.796-69.794-35.704-71.042-30.651-72.297-25.604-73.042-19.958-73.286-13.719-73.535-7.48-74.021-1.803-74.76 3.323-75.498 8.444-76.692 12.652-78.343 15.944-79.993 19.236-82.739 20.605-86.581 20.052-89.403 19.645-92.154 18.33-94.838 16.117-97.526 13.898-100.104 11.37-102.569 8.533-105.04 5.689-107.285 2.688-109.31-.477-111.341-3.649-113.104-6.385-114.598-8.689L-108.456-51.333-131.936-62.559-132.49-58.717C-131.248-58.274-130.472-56.857-130.162-54.46-129.857-52.063-129.719-49.366-129.759-46.363-129.799-43.366-130.003-40.583-130.373-38.02-130.778-35.205-131.037-33.41-131.147-32.642L-138.618 19.223-115.632 31.161-115.079 27.319C-116.289 26.618-117.154 24.925-117.68 22.239-118.211 19.546-118.637 17.524-118.963 16.172-117.788 13.461-116.925 10.191-116.372 6.349-115.854 2.759-115.526-.459-115.373-3.311-113.221-.127-110.772 3.295-108.029 6.962-105.29 10.623-102.2 14.138-98.765 17.513-95.328 20.881-91.758 23.748-88.042 26.116-84.333 28.476-80.428 29.958-76.329 30.548-71.208 31.285-66.859 30.147-63.288 27.132-59.716 24.117-57.562 20.046-56.824 14.926L-50.681-27.718C-50.423-29.513-49.725-31.636-48.588-34.083-47.45-36.536-45.604-37.575-43.041-37.205-38.178-36.505-33.539-33.747-29.135-28.928-24.73-24.115-20.771-18.508-17.243-12.117-13.721-5.728-5.254 .616-2.368 6.914 .512 13.211 2.979 18.333 5.025 22.292L5.682 23.171 7.551 21.087C5.615 14.534 3.098 7.505 0 0" fill="#1d96d3"/>
<path transform="matrix(1,0,0,-1,642.2178,141.88623)" d="M0 0C.934 6.777 .337 12.569-1.789 17.384-3.917 22.191-8.634 25.102-15.931 26.107-23.753 27.186-30.167 25.012-35.162 19.591-36.088 18.654-37.162 17.139-38.377 15.052-39.6 12.96-40.757 10.797-41.863 8.558-42.968 6.319-43.946 4.063-44.789 1.788-45.637-.486-46.128-2.15-46.271-3.189-46.739-6.581-46.909-10.212-46.776-14.079-46.649-17.952-45.961-21.633-44.711-25.125-43.468-28.621-41.565-31.673-38.999-34.281-36.438-36.895-33.07-38.485-28.896-39.061-23.684-39.779-19.046-38.892-14.979-36.396-10.917-33.904-7.166-30.765-3.718-26.987ZM68.487-23.586C63.361-29.922 57.659-35.644 51.375-40.756 45.091-45.869 38.355-49.922 31.167-52.917 23.979-55.912 16.774-56.912 9.55-55.917 3.781-55.121-.065-52.399-1.978-47.752-3.897-43.104-4.745-38.142-4.527-32.854-9.008-38.351-14.757-42.472-21.775-45.223-28.799-47.979-35.699-48.884-42.476-47.95-52.125-46.62-58.757-42.188-62.363-34.648-65.977-27.113-67.187-19.038-66.001-10.434-65.139-4.176-63.28 1.677-60.424 7.13-57.568 12.578-53.915 17.125-49.465 20.765-45.017 24.399-39.908 27.083-34.14 28.816-28.372 30.543-22.261 30.965-15.801 30.075-7.282 28.901 .253 25.334 6.807 19.388 10.239 19.444 13.756 20.155 17.369 21.519 20.975 22.877 24.564 23.977 28.129 24.818L30.031 24.158C27.892 20.2 26.024 17.269 24.436 15.364 22.84 13.454 21.725 10.158 21.079 5.464L16.066-30.909C15.851-32.474 15.669-34.242 15.535-36.216 15.394-38.189 15.465-40.061 15.758-41.826 16.043-43.597 16.628-45.135 17.512-46.452 18.389-47.769 19.873-48.571 21.962-48.859 26.913-49.541 32.274-48.225 38.051-44.898 43.821-41.577 49.374-37.429 54.712-32.448 60.043-27.473 64.897-22.164 69.262-16.519 73.626-10.88 77.117-6.243 79.746-2.62L81.418-2.053 80.987-5.182C77.778-11.117 73.607-17.254 68.487-23.586" fill="#1d96d3"/>
<path transform="matrix(1,0,0,-1,840.6646,210.81299)" d="M0 0C-.985 3.437-2.348 6.591-4.103 9.465-5.857 12.339-8.184 14.91-11.079 17.175-17.704 22.358-24.937 23.765-32.79 21.403-40.642 19.041-46.997 14.756-51.854 8.549-53.796 6.066-55.82 3.06-57.911-.472-60.01-4.004-61.526-7.65-62.47-11.415-63.414-15.179-63.57-18.896-62.934-22.56-62.302-26.229-60.227-29.432-56.706-32.186-53.19-34.937-48.692-36.542-43.206-36.995-37.729-37.449-32.96-37.428-28.897-36.933ZM36.876-66.38C29.25-69.092 21.395-71.029 13.305-72.205 5.211-73.377-2.635-73.493-10.233-72.551-17.835-71.606-24.214-69.117-29.369-65.084-33.884-61.551-35.851-57.51-35.266-52.965-34.68-48.419-33.161-43.94-30.694-39.529-38.523-41.082-46.054-41.193-53.282-39.87-60.513-38.55-67.408-35.321-73.964-30.191-81.553-24.253-85.293-17.942-85.184-11.257-85.079-4.568-82.218 2.356-76.602 9.533-72.755 14.45-68.06 18.532-62.509 21.789-56.959 25.045-51.051 27.271-44.771 28.472-38.497 29.676-32.2 29.62-25.882 28.312-19.573 27.003-13.825 24.327-8.651 20.279-5.756 18.014-3.345 15.549-1.424 12.889 .498 10.228 1.876 7.094 2.713 3.467L53.424 68.279 79.871 58.594 77.928 56.111C74.633 57.016 71.309 55.865 67.964 52.649 64.611 49.433 62.047 46.686 60.268 44.411L-14.605-51.281C-16.047-53.124-17.138-55.578-17.861-58.639-18.589-61.698-17.815-64.117-15.536-65.9-12.229-68.488-7.408-69.68-1.065-69.467 5.269-69.255 11.896-68.35 18.816-66.76 25.732-65.166 32.417-63.227 38.879-60.942 45.333-58.659 50.442-56.816 54.207-55.422L57.04-55.638 56.204-57.985C50.942-60.874 44.498-63.673 36.876-66.38" fill="#1d96d3"/>
<path transform="matrix(1,0,0,-1,877.1865,329.9834)" d="M0 0C-4.604 1.229-8.432 3.975-11.495 8.242-13.948 11.658-15.111 15.189-14.979 18.838-14.856 22.489-13.954 25.963-12.278 29.267-10.61 32.571-8.418 35.6-5.703 38.353-2.996 41.107-.25 43.479 2.526 45.473 3.376 46.083 4.918 46.871 7.147 47.82 9.373 48.773 11.678 49.617 14.059 50.355 16.439 51.094 18.8 51.744 21.155 52.297 23.5 52.851 25.335 53.114 26.65 53.088 34.005 53.2 39.988 50.051 44.584 43.648 48.872 37.676 50.007 32.261 47.989 27.417 45.967 22.569 42.184 18.156 36.637 14.174L14.548-1.683C9.444-1.785 4.594-1.227 0 0M129.76-145.352C127.163-144.935 124.374-144.842 121.382-145.077 118.39-145.313 115.542-145.397 112.838-145.335 97.798-145.512 84.508-141.96 72.966-134.667 61.419-127.377 52.171-117.101 45.21-103.842L42.462-98.608C48.316-103.546 54.544-106.507 61.146-107.492 67.743-108.479 74.536-107.139 81.514-103.475 85.93-101.156 89.687-97.849 92.775-93.557 95.862-89.265 98.35-84.545 100.25-79.396 102.142-74.243 103.685-68.982 104.873-63.616 106.058-58.244 106.958-53.321 107.577-48.844L122.684-46.253 122.283-43.793C113.142-45.032 103.763-46.242 94.152-47.436 92.272-47.667 90.4-47.852 88.532-48.009L88.55-48.005C88.55-48.005 66.881-47.773 64.16-47.878 62.199-47.598 48.351-47.238 50.998-47.74 50.917-47.736 36.663-46.119 30.293-44.226 23.916-42.332 19.277-39.355 16.369-35.303 15.141-33.592 14.702-31.968 15.052-30.428 15.398-28.883 16.109-27.403 17.194-25.979 18.271-24.554 19.576-23.215 21.102-21.961 22.623-20.703 24.028-19.618 25.309-18.699L55.08 2.673C58.921 5.431 62.073 6.89 64.552 7.048 67.022 7.207 70.428 7.87 74.763 9.042L73.934 10.872C70.875 12.875 67.612 14.717 64.15 16.393 60.68 18.07 57.748 20.126 55.348 22.572 55.148 31.403 52.55 39.309 47.545 46.281 43.75 51.568 39.244 55.702 34.029 58.689 28.81 61.673 23.356 63.526 17.668 64.248 11.975 64.967 6.174 64.486 .268 62.809-5.642 61.127-11.156 58.45-16.278 54.773-23.321 49.717-28.334 43.292-31.304 35.498-34.282 27.705-32.932 19.859-27.263 11.96-23.281 6.414-17.883 2.042-11.061-1.148-4.247-4.337 2.688-5.666 9.747-5.13 5.77-8.607 2.761-12.631 .716-17.215-1.333-21.793-.66-26.449 2.73-31.17 6.974-37.083 12.65-41.611 19.758-44.755 26.866-47.899 34.43-49.989 42.449-51.023 50.468-52.058 58.528-52.252 66.638-51.607 69.336-51.392 82.796-51.186 87-51.19 86.601-54.961 85.95-59.231 85.05-64.009 84.142-68.783 82.825-73.48 81.099-78.101 79.365-82.718 77.309-86.989 74.919-90.915 72.529-94.839 69.47-97.781 65.752-99.733 61.096-102.177 56.316-102.531 51.407-100.811 46.496-99.084 42.819-95.897 40.377-91.247 36.714-84.269 35.885-78.027 37.891-72.523 39.897-67.019 44.086-62.149 50.469-57.908L50.434-56.146C46.629-53.985 42.692-52.567 38.627-51.885 34.554-51.2 30.424-51.665 26.228-53.277 23.979-58.609 23.475-64.139 24.707-69.876 25.936-75.608 27.834-80.919 30.398-85.804 36.38-97.198 42.331-106.981 48.254-115.151 54.17-123.318 60.794-130.001 68.129-135.204 75.457-140.405 83.905-144.058 93.465-146.16 103.025-148.261 114.487-148.767 127.868-147.681L129.778-146.233Z" fill="#1d96d3"/>
<path transform="matrix(1,0,0,-1,323.1602,892.2686)" d="M0 0C-7.846-1.187-15.658-1.5-23.444-.938-31.234-.381-38.646 1.351-45.684 4.243-52.725 7.141-58.758 11.561-63.789 17.513-68.152 22.674-69.445 27.616-67.661 32.354-65.886 37.091-62.713 41.384-58.147 45.243-53.386 49.269-48.495 53.235-43.462 57.147-38.438 61.06-33.539 65.025-28.777 69.051-26.597 70.895-24.8 73.099-23.385 75.65-21.975 78.206-22.442 80.872-24.789 83.648-26.467 85.634-28.824 87.214-31.858 88.389-34.896 89.567-38.184 90.439-41.73 91.014-45.277 91.587-48.843 91.977-52.416 92.186-55.998 92.395-58.983 92.502-61.375 92.521L-97.199 64.277C-101.409 66.842-105.469 69.533-109.381 72.349-113.292 75.166-117.25 77.942-121.265 80.673-119.371 81.253-117.415 81.551-115.383 81.563-113.355 81.578-111.328 81.594-109.296 81.605-106.843 82.324-103.795 84.048-100.152 86.784-96.519 89.521-92.81 92.48-89.039 95.669-85.272 98.853-81.599 101.958-78.027 104.977-74.457 107.996-71.681 110.343-69.695 112.021-66.919 114.368-64.669 117.035-62.941 120.027-61.217 123.015-61.78 126.198-64.63 129.57-66.643 131.951-69.219 133.687-72.35 134.779-75.491 135.872-78.876 136.661-82.521 137.152-86.169 137.64-89.746 137.853-93.252 137.775-96.763 137.702-99.814 137.586-102.406 137.437-107.962 132.739-113.417 128.128-118.773 123.6-124.13 119.071-129.974 115.119-136.298 111.735-140.432 113.806-144.327 115.998-147.99 118.322-151.653 120.647-155.294 123.342-158.909 126.41L-157.718 127.416C-155.587 126.499-153.743 125.93-152.193 125.709-150.647 125.484-149.349 125.562-148.303 125.936-147.26 126.307-146.151 126.909-144.972 127.73-143.802 128.553-142.419 129.634-140.829 130.978L-92.95 168.503C-89.342 166.649-85.676 164.925-81.943 163.329-78.218 161.734-74.508 159.967-70.818 158.016L-69.812 156.826-70.339 153.828C-71.976 154.151-73.474 154.415-74.835 154.62-76.205 154.825-77.719 154.909-79.377 154.862L-95.058 142.627-95.448 141.277C-87.702 141.367-79.75 140.515-71.605 138.727-63.459 136.937-56.788 132.97-51.588 126.818-46.556 120.866-45.146 115.17-47.351 109.733-49.561 104.294-53.242 99.396-58.399 95.037-54.508 95.264-50.493 95.342-46.351 95.271-42.209 95.201-38.11 94.672-34.041 93.687-29.979 92.702-26.13 91.365-22.486 89.677-18.852 87.989-15.69 85.561-13.005 82.385-8.143 76.633-6.591 70.968-8.345 65.403-10.104 59.834-13.561 54.87-18.718 50.511-23.679 46.317-28.684 42.174-33.723 38.081-38.771 33.989-43.858 29.944-48.98 25.949-50.57 24.604-51.999 22.975-53.261 21.054-54.533 19.135-54.894 17.043-54.34 14.784-46.824 9.912-38.688 6.928-29.928 5.826-21.176 4.726-13.049 4.364-5.547 4.751 1.947 5.139 8.367 5.797 13.699 6.732 19.031 7.668 22.226 7.906 23.298 7.449L22.016 5.345C15.176 2.967 7.838 1.188 0 0" fill="#da3166"/>
<path transform="matrix(1,0,0,-1,402.5659,867.4102)" d="M0 0C-1.881 3.203-4.848 5.679-8.906 7.417-13.205 9.257-16.9 9.21-19.983 7.285-23.075 5.356-25.861 2.808-28.347-.367-28.45-.607-28.91-1.187-29.728-2.107-30.546-3.028-31.335-4.035-32.081-5.127-32.834-6.222-33.856-7.619-35.149-9.324-36.583-12.671-37.665-16.513-38.395-20.863-39.13-25.211-39.325-29.301-38.979-33.118-35.64-32.574-32.021-31.719-28.132-30.556-24.246-29.398-20.459-27.979-16.774-26.306-13.092-24.637-9.725-22.542-6.671-20.034-3.623-17.524-1.378-14.604 .055-11.257 1.896-6.958 1.873-3.206 0 0M42.155-57.473C35.146-61.963 27.81-65.392 20.157-67.765 12.496-70.141 4.669-71.095-3.328-70.638-11.332-70.179-19.626-68.11-28.223-64.429-33.238-62.281-38.096-59.427-42.783-55.863-47.479-52.303-51.292-48.339-54.223-43.971-57.163-39.605-59.021-34.71-59.805-29.287-60.595-23.862-59.708-18.169-57.15-12.196-55.209-7.663-51.546-3.224-46.154 1.11-40.769 5.441-35.807 8.615-31.267 10.633-26.05 12.916-20.672 13.938-15.125 13.683-9.583 13.43-4.185 12.178 1.071 9.927 6.321 7.68 10.445 4.271 13.438-.296 16.425-4.86 16.682-10.044 14.204-15.831 12.239-20.421 9.116-24.078 4.838-26.816 .553-29.552-4.083-31.641-9.075-33.073-14.072-34.503-19.23-35.507-24.562-36.079-29.896-36.656-34.714-37.018-39.02-37.174-37.985-43.326-35.339-48.532-31.078-52.781-26.825-57.033-21.952-60.332-16.456-62.686-10.007-65.446-3.171-66.466 4.064-65.749 11.293-65.029 18.316-63.308 25.143-60.574 31.962-57.844 38.602-54.54 45.07-50.666 51.529-46.796 57.271-42.962 62.284-39.174L62.285-42.141C55.87-47.872 49.162-52.988 42.155-57.473" fill="#da3166"/>
<path transform="matrix(1,0,0,-1,593.2334,957.6484)" d="M0 0C-5.917-6.297-12.366-11.841-19.354-16.631-26.343-21.42-33.698-25.004-41.417-27.37-49.137-29.743-57.026-30.028-65.087-28.233-70.73-26.978-74.293-24.28-75.765-20.146-77.244-16.009-77.653-11.198-76.991-5.7-76.336-.208-74.951 5.689-72.841 11.988-70.737 18.288-69.082 24.12-67.884 29.498-66.688 34.87-66.291 39.508-66.692 43.404-67.093 47.301-69.309 49.697-73.34 50.595-76.3 51.254-79.533 50.982-83.037 49.793-86.548 48.599-90.064 47.055-93.586 45.162-97.115 43.265-100.48 41.125-103.688 38.739-106.904 36.349-109.688 34.292-112.043 32.563L-122.005-12.176-149.595-14.493-148.697-10.463C-147.295-10.491-145.989-9.374-144.777-7.105-143.571-4.836-142.417-2.204-141.325 .798-140.235 3.794-139.39 6.64-138.791 9.329-138.133 12.282-137.714 14.165-137.535 14.972L-125.419 69.383-98.053 72.596-98.95 68.565C-100.419 68.324-101.917 66.966-103.453 64.491-104.997 62.013-106.182 60.162-107.017 58.939-106.87 55.8-107.243 52.222-108.14 48.191-108.979 44.425-109.865 41.1-110.787 38.204-107.446 40.562-103.722 43.043-99.609 45.657-95.506 48.267-91.106 50.599-86.417 52.661-81.729 54.717-77.097 56.224-72.509 57.179-67.928 58.128-63.486 58.131-59.185 57.173-53.813 55.977-49.916 53.205-47.498 48.86-45.082 44.515-44.472 39.653-45.668 34.281L-55.63-10.457C-56.049-12.34-56.155-14.716-55.946-17.578-55.739-20.447-54.293-22.177-51.604-22.775-46.503-23.911-40.848-22.916-34.651-19.781-28.455-16.653-22.402-12.567-16.484-7.54-10.572-2.511-4.994 2.593 .25 7.771 5.488 12.949 9.873 17.115 13.4 20.283L14.386 20.909 15.459 18.132C11.063 12.342 5.911 6.298 0 0" fill="#da3166"/>
<path transform="matrix(1,0,0,-1,700.0117,914.6035)" d="M0 0C.022-.27-.083-.682-.303-1.235-2.705-8.162-5.967-15.223-10.088-22.422-14.216-29.621-19.057-36.273-24.617-42.378-30.178-48.482-36.421-53.634-43.348-57.83-50.274-62.027-57.617-64.441-65.37-65.071-74.465-65.811-80.79-63.366-84.339-57.73-87.894-52.102-89.995-45.27-90.647-37.247L-94.658 12.091C-85.313 16.346-75.947 20.337-66.56 24.065L-66.364 21.659C-66.75 19.74-67.312 18.415-68.06 17.685-68.808 16.949-69.683 16.07-70.672 15.05-71.667 14.022-72.424 12.548-72.937 10.626-73.455 8.698-73.537 5.594-73.19 1.319L-70.19-35.584C-69.799-40.397-68.569-44.809-66.491-48.81-64.417-52.817-60.664-55.138-55.225-55.768-48.652-53.89-42.63-50.978-37.16-47.031-31.695-43.092-26.686-38.509-22.125-33.292-17.572-28.077-13.657-22.446-10.377-16.389-7.103-10.337-4.377-4.128-2.201 2.244L-.727 3.979 .271 1.638C.045 1.076-.043 .533 0 0M-79.196 62.841C-81.226 60.179-84.099 58.7-87.818 58.397-90.792 58.155-93.453 59.372-95.788 62.054-98.128 64.729-99.406 67.433-99.628 70.163-99.83 72.638-98.735 75.288-96.344 78.103-93.953 80.917-91.52 82.425-89.039 82.626-86.314 82.848-83.61 81.816-80.928 79.543-78.251 77.264-76.796 74.762-76.575 72.037-76.292 68.563-77.167 65.497-79.196 62.841" fill="#da3166"/>
<path transform="matrix(1,0,0,-1,822.5796,864.7178)" d="M0 0C-.804-8.259-2.456-16.257-4.959-23.998-7.463-31.739-10.953-38.779-15.433-45.105-19.91-51.438-25.741-56.284-32.922-59.648-37.949-62.003-42.241-62.043-45.786-59.763-49.336-57.485-52.47-54.068-55.191-49.5-57.916-44.94-60.322-39.643-62.413-33.616-64.51-27.593-66.672-22.188-68.917-17.396-71.159-12.61-73.577-8.852-76.168-6.125-78.759-3.397-81.85-2.875-85.441-4.558-88.078-5.793-90.376-7.896-92.342-10.855-94.311-13.823-96.079-17.06-97.646-20.565-99.216-24.078-100.519-27.679-101.559-31.374-102.602-35.078-103.512-38.276-104.288-40.973L-85.616-80.83-105.233-98.777-106.915-95.187C-105.833-94.385-105.495-92.77-105.904-90.334-106.318-87.901-106.984-85.223-107.916-82.3-108.845-79.383-109.872-76.724-110.994-74.327-112.227-71.696-113.013-70.019-113.349-69.301L-136.058-20.825-117.136-2.328-115.455-5.919C-116.429-6.964-116.771-8.876-116.488-11.657-116.207-14.447-116.022-16.551-115.939-17.969-113.986-20.27-112.171-23.21-110.489-26.8-108.917-30.155-107.64-33.204-106.643-35.945-105.485-32.194-104.109-28.122-102.516-23.723-100.927-19.331-98.95-14.978-96.595-10.658-94.237-6.345-91.599-2.481-88.67 .936-85.745 4.345-82.369 6.953-78.538 8.748-73.751 10.99-69.163 11.169-64.776 9.283-60.39 7.397-57.074 4.059-54.832-.728L-36.16-40.585C-35.375-42.263-34.061-44.131-32.224-46.185-30.383-48.244-28.269-48.711-25.873-47.589-21.329-45.46-17.613-41.386-14.74-35.367-11.865-29.354-9.66-22.697-8.11-15.403-6.565-8.111-5.318-.959-4.369 6.054-3.424 13.064-2.535 18.805-1.711 23.282L-1.329 24.336 1.116 22.854C1.17 15.874 .798 8.256 0 0" fill="#da3166"/>
<path transform="matrix(1,0,0,-1,862.3062,794.8994)" d="M0 0C-4.935 4.794-9.982 7.761-15.149 8.906-20.312 10.047-25.48 7.959-30.642 2.646-36.174-3.049-38.235-9.54-36.818-16.815-36.61-18.124-36.023-19.896-35.057-22.124-34.09-24.361-33.027-26.587-31.872-28.816-30.717-31.046-29.471-33.182-28.13-35.221-26.793-37.263-25.738-38.651-24.981-39.387-22.512-41.785-19.671-44.087-16.459-46.282-13.247-48.486-9.854-50.122-6.281-51.189-2.708-52.265 .898-52.542 4.541-52.016 8.183-51.498 11.478-49.718 14.43-46.679 18.118-42.884 20.162-38.6 20.562-33.816 20.962-29.042 20.655-24.133 19.648-19.09ZM59.906 41.434C61.986 33.506 63.225 25.479 63.623 17.342 64.021 9.206 63.292 1.334 61.437-6.273 59.581-13.881 56.098-20.313 50.989-25.573 46.908-29.773 42.412-31.268 37.507-30.049 32.598-28.834 28.073-26.566 23.919-23.239 25.703-30.145 25.617-37.257 23.665-44.581 21.713-51.913 18.336-58.042 13.542-62.977 6.717-70.002-.824-72.733-9.081-71.164-17.338-69.603-24.601-65.772-30.865-59.686-35.421-55.26-39.056-50.267-41.772-44.704-44.484-39.146-45.992-33.478-46.291-27.704-46.584-21.936-45.715-16.197-43.683-10.492-41.646-4.79-38.348 .412-33.778 5.114-27.752 11.317-20.374 15.297-11.652 17.063-9.653 19.878-8.134 23.15-7.087 26.89-6.04 30.621-4.792 34.184-3.35 37.573L-1.682 38.721C.25 34.629 1.513 31.37 2.109 28.948 2.706 26.519 4.712 23.651 8.129 20.332L34.611-5.397C35.75-6.504 37.075-7.704 38.594-8.989 40.108-10.279 41.667-11.336 43.272-12.15 44.876-12.975 46.47-13.416 48.064-13.485 49.653-13.559 51.187-12.835 52.665-11.313 56.167-7.709 58.295-2.581 59.041 4.08 59.787 10.732 59.735 17.702 58.88 24.994 58.024 32.277 56.615 39.373 54.643 46.271 52.674 53.165 50.997 58.756 49.627 63.045L50.165 64.736 52.442 62.523C55.339 56.389 57.827 49.353 59.906 41.434" fill="#da3166"/>
<path transform="matrix(1,0,0,-1,973.1602,650.291)" d="M0 0C4.252-8.885 6.585-17.847 6.997-26.879 7.411-35.919 6.211-45.311 3.396-55.06 .583-64.816-3.493-75.593-8.827-87.393-11.114-92.451-14.151-97.245-17.937-101.769-21.725-106.298-26.423-109.321-32.045-110.839-35.922-108.509-38.848-105.521-40.826-101.865-42.802-98.219-44.115-94.219-44.756-89.862L-43.38-88.744C-36.064-91.181-29.608-91.488-24-89.672-18.392-87.855-13.955-83.334-10.688-76.107-8.511-71.292-8.259-66.401-9.931-61.437-11.605-56.478-14.845-52.905-19.667-50.727-23.517-48.985-27.745-48.38-32.338-48.914-36.931-49.449-41.591-50.463-46.328-51.946-51.061-53.438-55.603-55.301-59.952-57.537-64.298-59.781-68.088-61.909-71.326-63.927-64.348-72.888-58.242-82.318-53.005-92.226-47.765-102.143-43.167-112.339-39.208-122.832L-40.257-123.228C-43.861-115.799-46.79-109.763-49.04-105.114-51.293-100.473-53.538-95.977-55.779-91.625-58.018-87.281-59.646-84.295-60.654-82.676-65.814-74.836-71.839-67.469-78.733-60.578-85.629-53.694-92.396-47.004-99.039-40.521L-97.336-38.679-85.927-49.058C-81.993-46.777-77.531-44.443-72.536-42.057-67.544-39.677-62.416-37.644-57.158-35.954-51.896-34.273-46.613-33.323-41.297-33.115-35.981-32.907-31.031-33.84-26.458-35.907-19.231-39.174-13.962-43.731-10.661-49.575-7.354-55.422-5.848-62.195-6.14-69.896L-3.689-64.476C2.517-50.746 4.943-37.047 3.577-23.374 2.215-9.704-3.197 3.036-12.648 14.856-14.273 17.039-16.104 19.246-18.143 21.474-20.182 23.701-21.834 25.972-23.112 28.289L-22.424 28.849-20.093 28.23C-10.947 18.289-4.251 8.885 0 0" fill="#da3166"/>
</g>
</svg>
